<?xml version="1.0" encoding="utf-8"?>
<!-- Generator: Adobe Illustrator 26.2.1, SVG Export Plug-In . SVG Version: 6.00 Build 0)  -->
<svg version="1.1" id="Layer_1" xmlns="http://www.w3.org/2000/svg" xmlns:xlink="http://www.w3.org/1999/xlink" x="0px" y="0px"
	 viewBox="0 0 397 62" style="enable-background:new 0 0 397 62;" xml:space="preserve">
<style type="text/css">
	.st0{fill:#FF3535;}
	.st1{fill:#FFFFFF;stroke:#FFFFFF;}
	.st2{enable-background:new    ;}
	.st3{fill:#701739;}
</style>
<g>
	<g transform="translate(838.069 142.377)">
		<path class="st0" d="M-471.8-113.4c0-6.3,0-9.4,1.9-11.3s5.1-1.9,11.3-1.9h4.2c6.3,0,9.4,0,11.3,1.9s1.9,5.1,1.9,11.3v4.2
			c0,6.3,0,9.4-1.9,11.3s-5.1,1.9-11.3,1.9h-4.2c-6.3,0-9.4,0-11.3-1.9s-1.9-5.1-1.9-11.3L-471.8-113.4z"/>
		<path class="st1" d="M-464.4-112.8h16v2.9h-16V-112.8z M-457.9-119.3h2.9v16h-2.9L-457.9-119.3z"/>
	</g>
	<g class="st2">
		<path class="st3" d="M14.9,47.3c-2.1,0-3.9-0.2-5.4-0.7C8,46.1,6.7,45.3,5.7,44c-1-1.2-1.7-3-2.2-5.3c-0.5-2.3-0.7-5.3-0.7-9.1
			c0-3.5,0.3-6.4,0.8-8.7c0.5-2.3,1.3-4,2.3-5.3c1-1.3,2.3-2.2,3.9-2.7c1.6-0.5,3.4-0.8,5.5-0.8c1,0,2.1,0.1,3.2,0.2
			c1.2,0.1,2.4,0.3,3.5,0.4c1.2,0.2,2.2,0.4,3.1,0.6v2.8c-0.5-0.1-1.3-0.2-2.3-0.3c-1-0.1-2.1-0.2-3.3-0.3c-1.2-0.1-2.5-0.1-3.8-0.1
			c-1.7,0-3.1,0.2-4.3,0.6c-1.2,0.4-2.2,1.1-2.9,2.1c-0.7,1-1.3,2.5-1.6,4.3c-0.3,1.8-0.5,4.2-0.5,7.2c0,3,0.2,5.4,0.5,7.3
			s0.9,3.3,1.6,4.3c0.7,1,1.7,1.7,2.8,2.1c1.2,0.4,2.6,0.6,4.3,0.6c2.3,0,4.3-0.1,5.8-0.2c1.5-0.1,2.7-0.3,3.7-0.4v2.8
			c-0.9,0.2-2,0.4-3.1,0.6c-1.1,0.2-2.3,0.3-3.5,0.4C17.3,47.2,16.1,47.3,14.9,47.3z"/>
		<path class="st3" d="M30.9,47V21.9h2.8l0.9,4.4c1.1-1.3,2.4-2.5,3.8-3.3c1.4-0.9,3-1.3,4.8-1.3c0.4,0,0.9,0,1.2,0
			c0.4,0,0.8,0.1,1.1,0.2v3.8c-0.4-0.1-0.8-0.1-1.3-0.2c-0.5,0-0.9-0.1-1.4-0.1c-1.2,0-2.2,0.1-3.1,0.4c-0.9,0.3-1.8,0.7-2.6,1.3
			c-0.8,0.6-1.7,1.3-2.5,2.1V47H30.9z"/>
		<path class="st3" d="M57,58.1L60.2,47c-0.8,0-1.6-0.2-2.4-0.6c-0.8-0.3-1.6-0.9-2.4-1.8c-0.7-0.8-1.3-2-1.8-3.5l-6-19.2h3.9
			l5.6,18.4c0.3,1,0.7,1.7,1.1,2.2c0.4,0.5,0.8,0.8,1.2,1c0.4,0.2,0.8,0.3,1.1,0.3c0.3,0,0.5,0,0.5,0l6.4-21.9h3.8L62,53.5l-2.2,4.7
			H57z"/>
		<path class="st3" d="M84.3,47.3c-0.6,0-1.4,0-2.3,0c-0.9,0-1.9-0.1-2.8-0.1c-1-0.1-1.9-0.1-2.7-0.2s-1.4-0.2-1.9-0.3v-2.3h10.3
			c1,0,1.9-0.1,2.7-0.2c0.8-0.2,1.3-0.5,1.8-1c0.4-0.5,0.6-1.3,0.6-2.4v-1.1c0-1.1-0.4-2-1.1-2.6c-0.7-0.6-1.9-0.9-3.5-0.9h-3.5
			c-1.5,0-2.8-0.2-3.9-0.6c-1.1-0.4-2-1-2.7-1.9c-0.6-0.9-0.9-2.2-0.9-3.8v-1.3c0-1.6,0.3-2.9,0.9-3.9c0.6-1,1.6-1.8,2.9-2.3
			c1.3-0.5,3-0.8,5.1-0.8c0.9,0,1.9,0,3,0.1c1.1,0.1,2.3,0.1,3.4,0.3c1.1,0.1,2,0.2,2.7,0.4v2.3h-9.7c-1.6,0-2.8,0.3-3.7,0.8
			c-0.9,0.5-1.3,1.6-1.3,3.1v1c0,1,0.2,1.7,0.6,2.2c0.4,0.5,1,0.8,1.7,1c0.7,0.2,1.6,0.2,2.6,0.2h3.6c2.3,0,4.1,0.5,5.3,1.6
			c1.3,1.1,1.9,2.6,1.9,4.6v1.7c0,1.7-0.4,3-1.2,3.9c-0.8,0.9-1.8,1.6-3.1,1.9C87.7,47.1,86.1,47.3,84.3,47.3z"/>
		<path class="st3" d="M107.5,47c-1.6,0-3-0.3-4-0.8c-1.1-0.5-1.8-1.4-2.4-2.6c-0.5-1.2-0.7-2.8-0.7-4.7l0.1-13.9h-4v-2.4l4-0.7
			l0.6-7h2.9v7h7.2V25h-7.2v13.9c0,1.1,0.1,2,0.4,2.6s0.5,1.2,0.9,1.5c0.4,0.3,0.8,0.6,1.2,0.7c0.4,0.1,0.9,0.2,1.3,0.3l3.1,0.3V47
			H107.5z"/>
		<path class="st3" d="M121.3,47.3c-1.8,0-3.4-0.5-4.6-1.6c-1.2-1.1-1.8-2.6-1.8-4.7v-1.8c0-2,0.6-3.6,2-4.8
			c1.3-1.2,3.3-1.8,5.9-1.8h8.5v-3.1c0-1-0.2-1.9-0.5-2.7c-0.4-0.7-1-1.3-1.9-1.7c-0.9-0.4-2.3-0.6-4-0.6H117v-2.2
			c1.1-0.2,2.4-0.4,3.8-0.5c1.5-0.2,3.2-0.2,5.1-0.2c2,0,3.7,0.2,5.1,0.8c1.3,0.5,2.3,1.4,3,2.5c0.6,1.1,1,2.6,1,4.5V47h-2.9
			l-0.7-2.9c-0.1,0.1-0.5,0.3-1.2,0.7c-0.6,0.3-1.5,0.7-2.4,1.1c-1,0.4-2.1,0.7-3.2,1C123.5,47.1,122.4,47.3,121.3,47.3z
			 M122.9,44.5c0.6,0,1.2,0,1.9-0.2c0.7-0.2,1.5-0.3,2.2-0.5c0.8-0.2,1.4-0.4,2.1-0.6c0.6-0.2,1.2-0.4,1.6-0.6
			c0.4-0.2,0.6-0.2,0.7-0.2v-7.9l-7.7,0.3c-1.8,0.1-3.1,0.5-3.8,1.3c-0.8,0.8-1.2,1.9-1.2,3.1v1.1c0,1,0.2,1.8,0.6,2.4
			c0.4,0.6,1,1,1.6,1.3C121.5,44.3,122.2,44.5,122.9,44.5z"/>
		<path class="st3" d="M148.6,47c-1.4,0-2.6-0.3-3.6-0.8c-1-0.5-1.7-1.4-2.2-2.5c-0.5-1.2-0.8-2.8-0.8-4.8V11.1h3.7v27.4
			c0,1.5,0.1,2.6,0.4,3.4c0.3,0.8,0.7,1.3,1.2,1.6c0.5,0.3,1.2,0.5,1.9,0.6l2.5,0.3V47H148.6z"/>
		<path class="st3" d="M162.4,47c-1.4,0-2.6-0.3-3.6-0.8c-1-0.5-1.7-1.4-2.2-2.5c-0.5-1.2-0.8-2.8-0.8-4.8V11.1h3.7v27.4
			c0,1.5,0.1,2.6,0.4,3.4c0.3,0.8,0.7,1.3,1.2,1.6c0.5,0.3,1.2,0.5,1.9,0.6l2.5,0.3V47H162.4z"/>
		<path class="st3" d="M170.2,17.4c-0.5,0-0.8-0.2-0.8-0.8V13c0-0.5,0.3-0.8,0.8-0.8h2.6c0.3,0,0.4,0.1,0.5,0.2
			c0.1,0.1,0.2,0.3,0.2,0.5v3.7c0,0.5-0.2,0.8-0.7,0.8H170.2z M169.7,47V21.9h3.7V47H169.7z"/>
		<path class="st3" d="M179.3,47v-2.8L193.8,25H179v-3.1h19.2v2.8l-14.5,19.2h14.5V47H179.3z"/>
		<path class="st3" d="M213.3,47.3c-2.6,0-4.7-0.4-6.2-1.2c-1.5-0.8-2.6-2.1-3.3-4s-1-4.4-1-7.7c0-3.3,0.3-5.9,1-7.8
			c0.7-1.9,1.8-3.2,3.3-3.9s3.6-1.1,6.2-1.1c2.2,0,4,0.3,5.4,0.8c1.4,0.5,2.4,1.4,3.1,2.6s1,2.9,1,5c0,1.5-0.3,2.7-0.9,3.5
			c-0.6,0.9-1.4,1.5-2.5,1.9c-1.1,0.4-2.4,0.6-3.8,0.6h-9.2c0,2,0.3,3.7,0.7,4.9c0.4,1.2,1.2,2.1,2.2,2.7c1.1,0.5,2.7,0.8,4.8,0.8
			h8.1v2.3c-1.4,0.2-2.9,0.3-4.2,0.5S215.1,47.3,213.3,47.3z M206.5,33.5h8.9c1.4,0,2.5-0.3,3.1-0.8c0.7-0.5,1-1.4,1-2.8
			c0-1.4-0.2-2.6-0.6-3.4c-0.4-0.8-1.1-1.4-2-1.7c-0.9-0.3-2.1-0.5-3.6-0.5c-1.8,0-3.1,0.3-4.1,0.8c-1,0.5-1.7,1.4-2.1,2.7
			C206.7,29.2,206.5,31.1,206.5,33.5z"/>
		<path class="st3" d="M241.9,47V12.4h3.8V47H241.9z"/>
		<path class="st3" d="M261.2,47c-1.6,0-3-0.3-4-0.8c-1.1-0.5-1.8-1.4-2.3-2.6c-0.5-1.2-0.7-2.8-0.7-4.7l0.1-13.9h-4v-2.4l4-0.7
			l0.6-7h2.9v7h7.2V25h-7.2v13.9c0,1.1,0.1,2,0.4,2.6s0.5,1.2,0.9,1.5c0.4,0.3,0.8,0.6,1.2,0.7s0.9,0.2,1.3,0.3l3.1,0.3V47H261.2z"
			/>
		<path class="st3" d="M271.3,37.6l-0.5-25.2h3.7L274,37.6H271.3z M271.6,47c-0.5,0-0.8-0.2-0.8-0.8v-3.8c0-0.5,0.2-0.8,0.8-0.8h2.1
			c0.5,0,0.8,0.3,0.8,0.8v3.8c0,0.3-0.1,0.4-0.2,0.6s-0.3,0.2-0.5,0.2H271.6z"/>
	</g>
	<g class="st2">
		<path class="st0" d="M294.7,47V12.2h7v14.5h13.1V12.2h7V47h-7V32.9h-13.1V47H294.7z"/>
		<path class="st0" d="M341.2,47.3c-2.4,0-4.5-0.2-6.3-0.7c-1.8-0.5-3.3-1.3-4.5-2.5c-1.2-1.2-2.1-3-2.7-5.3
			c-0.6-2.3-0.9-5.3-0.9-9.1s0.3-6.8,0.9-9.1c0.6-2.3,1.5-4.1,2.7-5.4c1.2-1.3,2.7-2.1,4.5-2.6c1.8-0.5,3.9-0.7,6.3-0.7
			c2.4,0,4.5,0.2,6.3,0.7c1.8,0.5,3.3,1.3,4.5,2.6c1.2,1.3,2.1,3,2.7,5.4c0.6,2.3,0.9,5.4,0.9,9.1s-0.3,6.8-0.9,9.1
			c-0.6,2.3-1.5,4.1-2.7,5.3c-1.2,1.2-2.7,2.1-4.5,2.5C345.7,47.1,343.6,47.3,341.2,47.3z M341.2,41c1.4,0,2.6-0.2,3.5-0.5
			c0.9-0.3,1.7-0.9,2.2-1.7c0.5-0.8,0.9-1.9,1.2-3.4s0.4-3.4,0.4-5.8c0-2.5-0.1-4.5-0.4-6s-0.7-2.7-1.2-3.5
			c-0.5-0.8-1.3-1.3-2.2-1.6c-0.9-0.3-2.1-0.4-3.5-0.4c-1.3,0-2.5,0.1-3.4,0.4c-0.9,0.3-1.7,0.8-2.3,1.6c-0.6,0.8-1,2-1.3,3.5
			c-0.3,1.5-0.4,3.5-0.4,6c0,2.4,0.1,4.3,0.4,5.8c0.2,1.5,0.6,2.6,1.2,3.4c0.6,0.8,1.3,1.4,2.3,1.7C338.6,40.9,339.8,41,341.2,41z
			 M348.9,56.3c-1.5,0-2.9-0.3-4.3-0.8c-1.4-0.5-2.5-1.4-3.4-2.5s-1.4-2.5-1.5-4.3h4.8c0.2,0.9,0.7,1.6,1.5,2
			c0.8,0.4,1.7,0.6,2.6,0.6c0.5,0,1-0.1,1.5-0.2c0.5-0.1,1-0.2,1.4-0.3v5.1c-0.4,0.1-0.8,0.1-1.2,0.2
			C349.8,56.2,349.4,56.3,348.9,56.3z"/>
	</g>
</g>
</svg>
